<svg xmlns="http://www.w3.org/2000/svg" width="88" height="88" fill="none" viewBox="0 0 88 88"><path fill="#000" d="M43.435 6.387a1 1 0 0 1 1.13 0l3.49 2.39A1 1 0 0 0 48.97 8.89l3.96-1.486a1 1 0 0 1 1.098 0.27l2.816 3.156a1 1 0 0 0 0.863 0.328l4.2-0.495a1 1 0 0 1 1.001 0.525l1.98 3.738a1 1 0 0 0 0.76 0.525l4.196 0.525a1 1 0 0 1 0.846 0.749l1.027 4.103a1 1 0 0 0 0.612 0.691l3.95 1.514a1 1 0 0 1 0.642 0.93l0.015 4.23a1 1 0 0 0 0.43 0.817l3.471 2.416a1 1 0 0 1 0.401 1.056l-0.997 4.11a1 1 0 0 0 0.22 0.897l2.794 3.176a1 1 0 0 1 0.136 1.122l-1.952 3.752a1 1 0 0 0 0 0.924l1.952 3.752a1 1 0 0 1-0.136 1.122l-2.793 3.176a1 1 0 0 0-0.221 0.896l0.997 4.11a1 1 0 0 1-0.4 1.057l-3.473 2.416a1 1 0 0 0-0.429 0.817l-0.015 4.23a1 1 0 0 1-0.642 0.93l-3.95 1.514a1 1 0 0 0-0.612 0.69l-1.027 4.104a1 1 0 0 1-0.846 0.75l-4.197 0.524a1 1 0 0 0-0.76 0.525l-1.979 3.738a1 1 0 0 1-1 0.525l-4.201-0.494a1 1 0 0 0-0.863 0.327l-2.816 3.156a1 1 0 0 1-1.098 0.27l-3.96-1.485a1 1 0 0 0-0.916 0.11l-3.49 2.39a1 1 0 0 1-1.13 0l-3.49-2.39a1 1 0 0 0-0.916-0.11l-3.96 1.485a1 1 0 0 1-1.098-0.27l-2.816-3.156a1 1 0 0 0-0.863-0.328l-4.2 0.495a1 1 0 0 1-1.001-0.525l-1.98-3.738a1 1 0 0 0-0.76-0.525l-4.196-0.525a1 1 0 0 1-0.846-0.749l-1.027-4.103a1 1 0 0 0-0.612-0.691l-3.95-1.514a1 1 0 0 1-0.642-0.93l-0.015-4.23a1 1 0 0 0-0.43-0.817l-3.471-2.416A1 1 0 0 1 6.76 59.52l0.997-4.11a1 1 0 0 0-0.22-0.897l-2.794-3.176a1 1 0 0 1-0.136-1.122l1.952-3.752a1 1 0 0 0 0-0.924l-1.952-3.752a1 1 0 0 1 0.136-1.122l2.793-3.176a1 1 0 0 0 0.221-0.896l-0.997-4.11a1 1 0 0 1 0.4-1.057l3.473-2.416a1 1 0 0 0 0.429-0.817l0.015-4.23a1 1 0 0 1 0.642-0.93l3.95-1.514a1 1 0 0 0 0.612-0.69l1.027-4.104a1 1 0 0 1 0.846-0.75l4.197-0.524a1 1 0 0 0 0.76-0.525l1.979-3.738a1 1 0 0 1 1-0.525l4.201 0.495a1 1 0 0 0 0.863-0.328l2.816-3.156a1 1 0 0 1 1.098-0.27l3.96 1.486a1 1 0 0 0 0.916-0.112l3.49-2.39z" opacity=".08"/><path fill="#00CCBD" d="M43.435 4.387a1 1 0 0 1 1.13 0l3.49 2.39a1 1 0 0 0 0.916 0.111l3.96-1.485a1 1 0 0 1 1.098 0.27l2.816 3.156a1 1 0 0 0 0.863 0.328l4.2-0.495a1 1 0 0 1 1.001 0.525l1.98 3.738a1 1 0 0 0 0.76 0.525l4.196 0.525a1 1 0 0 1 0.846 0.749l1.027 4.103a1 1 0 0 0 0.612 0.691l3.95 1.514a1 1 0 0 1 0.642 0.93l0.015 4.23a1 1 0 0 0 0.43 0.817l3.471 2.416a1 1 0 0 1 0.401 1.056l-0.997 4.11a1 1 0 0 0 0.22 0.897l2.794 3.176a1 1 0 0 1 0.136 1.122l-1.952 3.752a1 1 0 0 0 0 0.924l1.952 3.752a1 1 0 0 1-0.136 1.122l-2.793 3.176a1 1 0 0 0-0.221 0.896l0.997 4.11a1 1 0 0 1-0.4 1.057l-3.473 2.416a1 1 0 0 0-0.429 0.817l-0.015 4.23a1 1 0 0 1-0.642 0.93l-3.95 1.514a1 1 0 0 0-0.612 0.69l-1.027 4.104a1 1 0 0 1-0.846 0.75l-4.197 0.524a1 1 0 0 0-0.76 0.525l-1.979 3.738a1 1 0 0 1-1 0.525l-4.201-0.494a1 1 0 0 0-0.863 0.327l-2.816 3.156a1 1 0 0 1-1.098 0.27l-3.96-1.485a1 1 0 0 0-0.916 0.11l-3.49 2.39a1 1 0 0 1-1.13 0l-3.49-2.39a1 1 0 0 0-0.916-0.11l-3.96 1.485a1 1 0 0 1-1.098-0.27l-2.816-3.156a1 1 0 0 0-0.863-0.328l-4.2 0.495a1 1 0 0 1-1.001-0.525l-1.98-3.738a1 1 0 0 0-0.76-0.525l-4.196-0.525a1 1 0 0 1-0.846-0.749l-1.027-4.103a1 1 0 0 0-0.612-0.691l-3.95-1.514a1 1 0 0 1-0.642-0.93l-0.015-4.23a1 1 0 0 0-0.43-0.817l-3.471-2.416A1 1 0 0 1 6.76 57.52l0.997-4.11a1 1 0 0 0-0.22-0.897l-2.794-3.176a1 1 0 0 1-0.136-1.122l1.952-3.752a1 1 0 0 0 0-0.924l-1.952-3.752a1 1 0 0 1 0.136-1.122l2.793-3.176a1 1 0 0 0 0.221-0.896l-0.997-4.11a1 1 0 0 1 0.4-1.057l3.473-2.416a1 1 0 0 0 0.429-0.817l0.015-4.23a1 1 0 0 1 0.642-0.93l3.95-1.514a1 1 0 0 0 0.612-0.69l1.027-4.104a1 1 0 0 1 0.846-0.75l4.197-0.524a1 1 0 0 0 0.76-0.525l1.979-3.738a1 1 0 0 1 1-0.525l4.201 0.495a1 1 0 0 0 0.863-0.328l2.816-3.156a1 1 0 0 1 1.098-0.27l3.96 1.486a1 1 0 0 0 0.916-0.112l3.49-2.39z"/><path fill="#05E4D3" d="M74 44c0 16.569-13.431 30-30 30-16.569 0-30-13.431-30-30 0-16.569 13.431-30 30-30 16.569 0 30 13.431 30 30z"/><path fill="#80E5DE" fill-rule="evenodd" d="M44 75c16.569 0 30-13.431 30-30 0-16.569-13.431-30-30-30-16.569 0-30 13.431-30 30 0 16.569 13.431 30 30 30zm0-1c16.016 0 29-12.984 29-29S60.016 16 44 16 15 28.984 15 45s12.984 29 29 29z" clip-rule="evenodd"/><path fill="#0E5454" fill-rule="evenodd" d="M44 74c16.569 0 30-13.431 30-30 0-16.569-13.431-30-30-30-16.569 0-30 13.431-30 30 0 16.569 13.431 30 30 30zm0-1c16.016 0 29-12.984 29-29S60.016 15 44 15 15 27.984 15 44s12.984 29 29 29z" clip-rule="evenodd"/><path fill="#55F4E9" d="M27.45 59.201l-2.349-11.318L38.661 45l-2.99-13.987 9.397-2.029 2.99 14.094 1.708-16.656 9.61 0.96-2.67 24.665-5.445 12.173L27.45 59.2zm13.774-11.424c-0.854 0.07-1.353 0.391-1.495 0.96-0.142 0.499-0.142 0.926 0 1.282a1.29 1.29 0 0 0 0.747 0.747c0.784 0.285 1.389 0.214 1.816-0.213 0.427-0.427 0.57-0.997 0.427-1.709-0.072-0.356-0.392-0.676-0.961-0.96a1.188 1.188 0 0 0-0.534-0.107zm5.445 1.601a2.694 2.694 0 0 0-0.32 0.64c-0.071 0.784 0.107 1.318 0.534 1.602 0.498 0.214 0.96 0.32 1.388 0.32 0.427-0.07 0.712-0.284 0.854-0.64 0.427-0.712 0.463-1.317 0.107-1.815-0.285-0.57-0.783-0.819-1.495-0.748-0.356 0-0.712 0.214-1.068 0.641z"/><path fill="#0E5454" d="M27.45 58.201l-2.349-11.318L38.661 44l-2.99-13.987 9.397-2.029 2.99 14.094 1.708-16.656 9.61 0.96-2.67 24.665-5.445 12.173L27.45 58.2zm13.774-11.424c-0.854 0.07-1.353 0.391-1.495 0.96-0.142 0.499-0.142 0.926 0 1.282a1.29 1.29 0 0 0 0.747 0.747c0.784 0.285 1.389 0.214 1.816-0.213 0.427-0.427 0.57-0.997 0.427-1.709-0.072-0.356-0.392-0.676-0.961-0.96a1.188 1.188 0 0 0-0.534-0.107zm5.445 1.601a2.694 2.694 0 0 0-0.32 0.64c-0.071 0.784 0.107 1.318 0.534 1.602 0.498 0.214 0.96 0.32 1.388 0.32 0.427-0.07 0.712-0.284 0.854-0.64 0.427-0.712 0.463-1.317 0.107-1.815-0.285-0.57-0.783-0.819-1.495-0.748-0.356 0-0.712 0.214-1.068 0.641z"/></svg>